PathFileType	4	(X/Y/Z)	C:\Users\86182\Documents\cortex\Trimmed_M1_H10.trc
DataRate	CameraRate	NumFrames	NumMarkers	Units	OrigDataRate	OrigDataStartFrame	OrigNumFrames
100.00	100.00	       140	2	mm	100.00	381	       951
Frame#	Time	gripper			box			
		X1	Y1	Z1	X2	Y2	Z2	

381	3.800	222.61641	204.61151	286.39679	228.96516	203.27788	139.94910	
382	3.810	222.49117	204.58873	286.38428	228.89592	203.27057	139.92694	
383	3.820	222.39818	204.57048	286.37399	228.84517	203.26465	139.90985	
384	3.830	222.34439	204.55887	286.36807	228.81848	203.26247	139.89807	
385	3.840	222.33049	204.55504	286.36777	228.81822	203.26570	139.89066	
386	3.850	222.35179	204.55820	286.37280	228.84009	203.27400	139.88657	
387	3.860	222.39844	204.56555	286.38147	228.87404	203.28500	139.88504	
388	3.870	222.45567	204.57309	286.39136	228.90923	203.29575	139.88548	
389	3.880	222.50569	204.57729	286.40021	228.93790	203.30400	139.88704	
390	3.890	222.53242	204.57652	286.40643	228.95636	203.30872	139.88878	
391	3.900	222.52757	204.57156	286.40912	228.96404	203.30983	139.89006	
392	3.910	222.49442	204.56468	286.40784	228.96254	203.30795	139.89063	
393	3.920	222.44527	204.55827	286.40320	228.95486	203.30415	139.89046	
394	3.930	222.39430	204.55385	286.39685	228.94473	203.29979	139.88965	
395	3.940	222.35172	204.55190	286.39154	228.93620	203.29642	139.88824	
396	3.950	222.32257	204.55235	286.38962	228.93286	203.29543	139.88620	
397	3.960	222.30823	204.55481	286.39215	228.93651	203.29747	139.88345	
398	3.970	222.30777	204.55864	286.39856	228.94614	203.30208	139.88023	
399	3.980	222.31879	204.56326	286.40668	228.95842	203.30775	139.87708	
400	3.990	222.33720	204.56834	286.41364	228.96947	203.31279	139.87457	
401	4.000	222.35722	204.57349	286.41681	228.97643	203.31595	139.87309	
402	4.010	222.37224	204.57762	286.41498	228.97783	203.31660	139.87280	
403	4.020	222.37674	204.57916	286.40857	228.97343	203.31467	139.87366	
404	4.030	222.36871	204.57710	286.39941	228.96410	203.31053	139.87544	
405	4.040	222.35144	204.57190	286.38986	228.95197	203.30515	139.87778	
406	4.050	222.33215	204.56529	286.38229	228.94038	203.30000	139.88007	
407	4.060	222.31793	204.55927	286.37885	228.93330	203.29684	139.88165	
408	4.070	222.31314	204.55496	286.38086	228.93355	203.29688	139.88206	
409	4.080	222.31963	204.55240	286.38794	228.94095	203.30006	139.88145	
410	4.090	222.33713	204.55083	286.39828	228.95248	203.30502	139.88043	
411	4.100	222.36284	204.54958	286.40924	228.96432	203.31007	139.87973	
412	4.110	222.39157	204.54878	286.41803	228.97372	203.31403	139.87975	
413	4.120	222.41713	204.54941	286.42242	228.97949	203.31638	139.88037	
414	4.130	222.43422	204.55251	286.42120	228.98169	203.31720	139.88110	
415	4.140	222.43941	204.55823	286.41455	228.98083	203.31682	139.88135	
416	4.150	222.43198	204.56543	286.40411	228.97734	203.31540	139.88095	
417	4.160	222.41409	204.57187	286.39246	228.97142	203.31297	139.88037	
418	4.170	222.38994	204.57530	286.38239	228.96375	203.30978	139.88007	
419	4.180	222.36391	204.57495	286.37631	228.95609	203.30656	139.88011	
420	4.190	222.34007	204.57182	286.37585	228.95108	203.30446	139.88022	
421	4.200	222.32204	204.56767	286.38123	228.95088	203.30440	139.88004	
422	4.210	222.31201	204.56380	286.39105	228.95561	203.30644	139.87950	
423	4.220	222.30998	204.56070	286.40314	228.96329	203.30975	139.87883	
424	4.230	222.31319	204.55843	286.41492	228.97147	203.31325	139.87828	
425	4.240	222.31699	204.55692	286.42419	228.97850	203.31625	139.87788	
426	4.250	222.31723	204.55626	286.42957	228.98384	203.31854	139.87747	
427	4.260	222.31226	204.55667	286.43048	228.98759	203.32021	139.87679	
428	4.270	222.30356	204.55840	286.42712	228.99007	203.32137	139.87572	
429	4.280	222.29486	204.56137	286.42053	228.99141	203.32207	139.87447	
430	4.290	222.29007	204.56508	286.41235	228.99181	203.32237	139.87332	
431	4.300	222.29121	204.56860	286.40469	228.99165	203.32242	139.87244	
432	4.310	222.29799	204.57080	286.39948	228.99152	203.32243	139.87175	
433	4.320	222.30898	204.57077	286.39807	228.99188	203.32266	139.87122	
434	4.330	222.32262	204.56807	286.40088	228.99274	203.32307	139.87077	
435	4.340	222.33752	204.56319	286.40704	228.99352	203.32343	139.87050	
436	4.350	222.35185	204.55753	286.41461	228.99341	203.32338	139.87048	
437	4.360	222.36269	204.55290	286.42133	228.99170	203.32263	139.87080	
438	4.370	222.36642	204.55054	286.42523	228.98792	203.32095	139.87155	
439	4.380	222.36086	204.55042	286.42566	228.98186	203.31827	139.87271	
440	4.390	222.34700	204.55183	286.42282	228.97382	203.31471	139.87427	
441	4.400	222.32878	204.55415	286.41776	228.96495	203.31079	139.87595	
442	4.410	222.31039	204.55714	286.41199	228.95734	203.30742	139.87738	
443	4.420	222.29486	204.56067	286.40698	228.95332	203.30565	139.87814	
444	4.430	222.28423	204.56444	286.40378	228.95424	203.30605	139.87799	
445	4.440	222.27933	204.56786	286.40271	228.95967	203.30846	139.87698	
446	4.450	222.27965	204.57019	286.40372	228.96786	203.31207	139.87546	
447	4.460	222.28404	204.57095	286.40619	228.97667	203.31596	139.87383	
448	4.470	222.29153	204.57022	286.40918	228.98442	203.31938	139.87239	
449	4.480	222.30092	204.56856	286.41150	228.99020	203.32195	139.87131	
450	4.490	222.31024	204.56647	286.41223	228.99373	203.32350	139.87067	
451	4.500	222.31744	204.56444	286.41107	228.99512	203.32411	139.87041	
452	4.510	222.32114	204.56284	286.40833	228.99467	203.32391	139.87048	
453	4.520	222.32040	204.56178	286.40485	228.99284	203.32310	139.87082	
454	4.530	222.31488	204.56102	286.40173	228.99019	203.32193	139.87132	
455	4.540	222.30553	204.56032	286.39987	228.98741	203.32071	139.87184	
456	4.550	222.29480	204.55971	286.39987	228.98524	203.31975	139.87224	
457	4.560	222.28499	204.55937	286.40186	228.98428	203.31932	139.87241	
458	4.570	222.27693	204.55940	286.40558	228.98470	203.31950	139.87233	
459	4.580	222.27026	204.55971	286.41022	228.98615	203.32014	139.87206	
460	4.590	222.26401	204.56003	286.41489	228.98776	203.32086	139.87173	
461	4.600	222.25743	204.56017	286.41867	228.98863	203.32126	139.87155	
462	4.610	222.25073	204.56017	286.42078	228.98817	203.32104	139.87161	
463	4.620	222.24516	204.56030	286.42084	228.98627	203.32021	139.87196	
464	4.630	222.24219	204.56084	286.41907	228.98326	203.31888	139.87253	
465	4.640	222.24289	204.56165	286.41608	228.97997	203.31741	139.87318	
466	4.650	222.24768	204.56238	286.41290	228.97733	203.31624	139.87375	
467	4.660	222.25627	204.56256	286.41046	228.97606	203.31566	139.87411	
468	4.670	222.26808	204.56181	286.40930	228.97652	203.31584	139.87421	
469	4.680	222.28246	204.56000	286.40948	228.97867	203.31677	139.87405	
470	4.690	222.29903	204.55745	286.41049	228.98196	203.31819	139.87369	
471	4.700	222.31735	204.55511	286.41119	228.98563	203.31979	139.87320	
472	4.710	222.33601	204.55415	286.41061	228.98898	203.32127	139.87262	
473	4.720	222.35170	204.55508	286.40848	228.99159	203.32245	139.87201	
474	4.730	222.36012	204.55746	286.40546	228.99315	203.32317	139.87148	
475	4.740	222.35826	204.56033	286.40253	228.99355	203.32336	139.87111	
476	4.750	222.34645	204.56294	286.40021	228.99286	203.32309	139.87100	
477	4.760	222.32813	204.56496	286.39868	228.99132	203.32243	139.87115	
478	4.770	222.30782	204.56624	286.39816	228.98933	203.32155	139.87154	
479	4.780	222.28914	204.56676	286.39880	228.98734	203.32063	139.87212	
480	4.790	222.27386	204.56650	286.40094	228.98569	203.31987	139.87283	
481	4.800	222.26215	204.56537	286.40479	228.98485	203.31943	139.87361	
482	4.810	222.25337	204.56325	286.41010	228.98503	203.31940	139.87439	
483	4.820	222.24712	204.56029	286.41617	228.98593	203.31970	139.87511	
484	4.830	222.24352	204.55707	286.42188	228.98720	203.32018	139.87561	
485	4.840	222.24292	204.55432	286.42596	228.98871	203.32080	139.87564	
486	4.850	222.24518	204.55276	286.42755	228.99040	203.32158	139.87503	
487	4.860	222.24942	204.55284	286.42633	228.99210	203.32242	139.87399	
488	4.870	222.25473	204.55453	286.42291	228.99348	203.32314	139.87286	
489	4.880	222.26073	204.55730	286.41818	228.99443	203.32365	139.87187	
490	4.890	222.26747	204.56035	286.41327	228.99495	203.32396	139.87114	
491	4.900	222.27498	204.56328	286.40894	228.99516	203.32411	139.87065	
492	4.910	222.28333	204.56618	286.40552	228.99529	203.32419	139.87035	
493	4.920	222.29251	204.56920	286.40283	228.99538	203.32425	139.87018	
494	4.930	222.30197	204.57204	286.40091	228.99532	203.32422	139.87015	
495	4.940	222.30991	204.57396	286.39990	228.99487	203.32404	139.87022	
496	4.950	222.31406	204.57419	286.40009	228.99385	203.32358	139.87044	
497	4.960	222.31329	204.57248	286.40140	228.99216	203.32281	139.87080	
498	4.970	222.30823	204.56938	286.40350	228.98981	203.32178	139.87128	
499	4.980	222.30061	204.56592	286.40582	228.98714	203.32060	139.87180	
500	4.990	222.29210	204.56291	286.40808	228.98466	203.31950	139.87228	
501	5.000	222.28369	204.56068	286.41006	228.98300	203.31876	139.87262	
502	5.010	222.27632	204.55925	286.41187	228.98250	203.31854	139.87274	
503	5.020	222.27118	204.55858	286.41333	228.98318	203.31883	139.87262	
504	5.030	222.26906	204.55878	286.41437	228.98470	203.31952	139.87234	
505	5.040	222.27029	204.55991	286.41483	228.98671	203.32040	139.87196	
506	5.050	222.27460	204.56197	286.41443	228.98894	203.32138	139.87154	
507	5.060	222.28123	204.56491	286.41302	228.99110	203.32234	139.87112	
508	5.070	222.28912	204.56859	286.41064	228.99284	203.32312	139.87079	
509	5.080	222.29688	204.57237	286.40778	228.99391	203.32359	139.87059	
510	5.090	222.30252	204.57530	286.40521	228.99416	203.32368	139.87054	
511	5.100	222.30415	204.57669	286.40369	228.99355	203.32343	139.87067	
512	5.110	222.30116	204.57635	286.40363	228.99223	203.32285	139.87094	
513	5.120	222.29454	204.57437	286.40512	228.99051	203.32208	139.87129	
514	5.130	222.28589	204.57103	286.40790	228.98894	203.32138	139.87164	
515	5.140	222.27660	204.56697	286.41156	228.98817	203.32103	139.87189	
516	5.150	222.26799	204.56297	286.41544	228.98857	203.32118	139.87192	
517	5.160	222.26129	204.55972	286.41870	228.98982	203.32172	139.87180	
518	5.170	222.25702	204.55769	286.42068	228.99130	203.32237	139.87163	
519	5.180	222.25471	204.55708	286.42102	228.99255	203.32292	139.87143	
520	5.190	222.25327	204.55766	286.41986	228.99333	203.32327	139.87125	
